<?xml version="1.0" standalone="no"?>
<!DOCTYPE svg PUBLIC "-//W3C//DTD SVG 20010904//EN"
 "http://www.w3.org/TR/2001/REC-SVG-20010904/DTD/svg10.dtd">
<svg version="1.0" xmlns="http://www.w3.org/2000/svg"
 width="100.000000pt" height="100.000000pt" viewBox="0 0 100.000000 100.000000"
 preserveAspectRatio="xMidYMid meet">
<metadata>
Created by potrace 1.15, written by Peter Selinger 2001-2017
</metadata>
<g transform="translate(0.000000,100.000000) scale(0.100000,-0.100000)"
fill="#000000" stroke="none">
<path d="M23 840 c2 -36 12 -81 22 -99 19 -37 21 -36 -32 -14 -29 12 2 -90 44
-145 23 -31 24 -33 4 -23 -16 9 -21 9 -21 -1 0 -22 38 -76 65 -94 l27 -17 -29
-15 -28 -15 32 -14 c18 -7 64 -18 102 -24 78 -13 165 -2 208 26 38 25 16 36
-30 15 -43 -20 -162 -27 -201 -11 -17 7 -16 9 8 24 36 24 33 33 -18 46 -24 6
-48 17 -55 25 -9 11 -6 16 21 25 l32 11 -36 25 c-31 21 -78 80 -78 98 0 3 16
-1 35 -9 19 -7 48 -14 64 -14 l30 0 -44 45 c-34 33 -49 59 -61 102 -9 32 -27
72 -41 88 l-25 30 5 -65z"/>
<path d="M954 872 c-12 -15 -29 -53 -38 -85 -13 -43 -29 -70 -61 -103 l-44
-44 30 0 c16 0 45 7 64 14 19 8 35 12 35 9 0 -18 -47 -77 -78 -98 l-36 -25 32
-11 c27 -9 30 -14 21 -25 -7 -8 -31 -19 -55 -25 -51 -13 -54 -22 -18 -46 24
-15 25 -17 8 -24 -39 -16 -158 -9 -201 11 -46 21 -68 10 -30 -15 43 -28 130
-39 208 -26 38 6 84 17 102 24 l32 14 -28 15 -29 15 27 17 c27 18 65 72 65 94
0 10 -5 10 -21 1 -20 -10 -19 -8 4 23 27 34 57 107 57 135 0 10 -6 13 -15 9
-50 -20 -48 -21 -30 15 15 28 35 160 24 158 -2 0 -14 -12 -25 -27z"/>
</g>
</svg>
